<svg width="66" height="66" viewBox="0 0 66 66" fill="none" xmlns="http://www.w3.org/2000/svg">
<path d="M0.5 0.5H65.5V65.5H0.5V0.5Z" fill="white" stroke="black"/>
<path d="M13.291 8C1.38625 14.5 13.291 21 13.291 21" stroke="black"/>
<path d="M12.762 21L44.9048 21" stroke="black" stroke-width="0.9"/>
<path d="M12.6958 8H44.8387" stroke="black" stroke-width="0.9"/>
<line x1="13.886" y1="9.875" x2="43.6479" y2="9.875" stroke="black" stroke-width="0.25"/>
<line x1="13.9998" y1="8.875" x2="43.7617" y2="8.875" stroke="black" stroke-width="0.25"/>
<path d="M13.8722 19.875H43.7618" stroke="black" stroke-width="0.25"/>
<path d="M13.886 10.875H44.2431" stroke="black" stroke-width="0.25"/>
<path d="M13.886 13H44.2431" stroke="black" stroke-width="0.25"/>
<path d="M13.886 15H44.2431" stroke="black" stroke-width="0.25"/>
<path d="M13.886 17H44.2431" stroke="black" stroke-width="0.25"/>
<path d="M13.886 19H44.2431" stroke="black" stroke-width="0.25"/>
<line x1="13.886" y1="11.875" x2="43.6479" y2="11.875" stroke="black" stroke-width="0.25"/>
<line x1="13.886" y1="13.875" x2="43.6479" y2="13.875" stroke="black" stroke-width="0.25"/>
<line x1="13.886" y1="15.875" x2="43.6479" y2="15.875" stroke="black" stroke-width="0.25"/>
<line x1="13.886" y1="17.875" x2="43.6479" y2="17.875" stroke="black" stroke-width="0.25"/>
<path d="M8.00024 54.5H44.1807" stroke="black"/>
<path d="M44.2434 21L43.7144 55" stroke="black" stroke-width="1.1"/>
<path d="M8.00024 15L8.52922 55" stroke="black" stroke-width="0.9"/>
<line x1="13.262" y1="8" x2="13.262" y2="21" stroke="black"/>
<rect x="31.1191" y="12.5" width="26.381" height="45" fill="white" stroke="black"/>
<path d="M47.3086 50.3186L49.3805 49.2982" stroke="black" stroke-width="0.25"/>
<path d="M47.3086 50.3348L48.4776 48.6996" stroke="black" stroke-width="0.25"/>
<rect width="8.39471" height="1.20391" transform="matrix(0.792871 -0.609389 0.801204 0.598391 48.365 48.6843)" fill="black"/>
<path d="M34.1904 16.69C36.7594 15.9009 34.7857 18.0429 38.9523 16.69C41.5213 15.9009 38.9523 18.0429 43.119 16.69C45.688 15.9009 43.4821 18.0429 47.6488 16.69" stroke="black" stroke-width="0.25"/>
<path d="M47.8809 16.5098C50.857 19.2157 51.4523 15.284 53.8332 16.9752" stroke="black" stroke-width="0.25"/>
<path d="M34.1904 19.3958C36.7594 18.6067 34.7857 20.7488 38.9523 19.3958C41.5213 18.6067 38.9523 20.7488 43.119 19.3958C45.688 18.6067 43.4821 20.7488 47.6488 19.3958" stroke="black" stroke-width="0.25"/>
<path d="M47.8809 19.2157C50.857 21.9216 51.4523 17.9899 53.8332 19.6811" stroke="black" stroke-width="0.25"/>
<path d="M34.1904 22.1017C36.7594 21.3126 34.7857 23.4547 38.9523 22.1017C41.5213 21.3126 38.9523 23.4547 43.119 22.1017C45.688 21.3126 43.4821 23.4547 47.6488 22.1017" stroke="black" stroke-width="0.25"/>
<path d="M47.8809 21.9216C50.857 24.6275 51.4523 20.6958 53.8332 22.3869" stroke="black" stroke-width="0.25"/>
<path d="M34.1904 24.8076C36.7594 24.0185 34.7857 26.1605 38.9523 24.8076C41.5213 24.0185 38.9523 26.1605 43.119 24.8076C45.688 24.0185 43.4821 26.1605 47.6488 24.8076" stroke="black" stroke-width="0.25"/>
<path d="M47.8809 24.6274C50.857 27.3333 51.4523 23.4016 53.8332 25.0928" stroke="black" stroke-width="0.25"/>
<path d="M34.1904 27.5135C36.7594 26.7244 34.7857 28.8664 38.9523 27.5135C41.5213 26.7244 38.9523 28.8664 43.119 27.5135C45.688 26.7244 43.4821 28.8664 47.6488 27.5135" stroke="black" stroke-width="0.25"/>
<path d="M47.8809 27.3333C50.857 30.0392 51.4523 26.1075 53.8332 27.7987" stroke="black" stroke-width="0.25"/>
<path d="M34.1904 30.2194C36.7594 29.4302 34.7857 31.5723 38.9523 30.2194C41.5213 29.4302 38.9523 31.5723 43.119 30.2194C45.688 29.4302 43.4821 31.5723 47.6488 30.2194" stroke="black" stroke-width="0.25"/>
<path d="M47.8809 30.0392C50.857 32.7451 51.4523 28.8134 53.8332 30.5046" stroke="black" stroke-width="0.25"/>
<path d="M34.1904 32.9252C36.7594 32.1361 34.7857 34.2782 38.9523 32.9252C41.5213 32.1361 38.9523 34.2782 43.119 32.9252C45.688 32.1361 43.4821 34.2782 47.6488 32.9252" stroke="black" stroke-width="0.25"/>
<path d="M47.8809 32.7451C50.857 35.451 51.4523 31.5193 53.8332 33.2105" stroke="black" stroke-width="0.25"/>
<path d="M34.1904 35.6311C36.7594 34.842 34.7857 36.9841 38.9523 35.6311C41.5213 34.842 38.9523 36.9841 43.119 35.6311C45.688 34.842 43.4821 36.9841 47.6488 35.6311" stroke="black" stroke-width="0.25"/>
<path d="M47.8809 35.451C50.857 38.1569 51.4523 34.2252 53.8332 35.9164" stroke="black" stroke-width="0.25"/>
</svg>
